<?xml version="1.0" encoding="iso-8859-1"?>
<!-- Generator: Adobe Illustrator 19.0.0, SVG Export Plug-In . SVG Version: 6.00 Build 0)  -->
<svg version="1.1" id="Layer_1" xmlns="http://www.w3.org/2000/svg" xmlns:xlink="http://www.w3.org/1999/xlink" x="0px" y="0px"
	 viewBox="0 0 512 512" style="enable-background:new 0 0 512 512;" xml:space="preserve">
<path style="fill:#FFE49C;" d="M454.373,424.365H16.542c-9.128,0-16.528-7.4-16.528-16.528V162.5c0-9.128,7.4-16.528,16.528-16.528
	h362.244c9.128,0,16.528,7.4,16.528,16.528c0,8.1,2.311,15.944,6.683,22.685c7.76,11.982,20.892,19.13,35.133,19.13
	c4.227,0,8.386-0.624,12.365-1.852c10.623-3.285,21.408,4.672,21.408,15.791v189.584
	C470.901,416.966,463.502,424.365,454.373,424.365z"/>
<g>
	<path style="fill:#FFC72D;" d="M449.494,202.463c-3.978,1.23-8.138,1.852-12.365,1.852c-14.24,0-27.372-7.149-35.133-19.13
		c-4.372-6.741-6.683-14.585-6.683-22.685c0-9.128-7.4-16.528-16.528-16.528H235.458v278.393h218.916
		c9.128,0,16.528-7.4,16.528-16.528V218.253C470.901,207.135,460.117,199.178,449.494,202.463z"/>
	<path style="fill:#FFC72D;" d="M454.373,424.371H16.543c-14.843,0-22.162-18.151-11.455-28.442l170.439-163.852
		c4.966-4.774,12.37-5.967,18.584-2.996l41.347,19.77l41.347-19.77c6.213-2.971,13.619-1.777,18.584,2.996l170.439,163.851
		C476.528,406.215,469.225,424.371,454.373,424.371z"/>
</g>
<g>
	<path style="fill:#F59D00;" d="M228.328,282.086L9.412,177.411c-15.805-7.558-10.404-31.439,7.13-31.439h362.244
		c9.128,0,16.528,7.4,16.528,16.528c0,8.1,2.311,15.944,6.683,22.685c5.427,8.366,2.254,19.606-6.738,23.905l-152.672,72.996
		C238.079,284.242,232.837,284.243,228.328,282.086z"/>
	<path style="fill:#F59D00;" d="M465.827,395.928L295.389,232.076c-4.965-4.773-12.37-5.967-18.584-2.996l-41.347,19.77V424.37
		h218.916C469.216,424.371,476.535,406.22,465.827,395.928z"/>
</g>
<path style="fill:#CF7004;" d="M401.997,185.185c-4.372-6.741-6.683-14.585-6.683-22.685c0-9.128-7.4-16.528-16.528-16.528H235.458
	v137.731c2.437,0,4.876-0.539,7.13-1.617l152.672-72.996C404.257,204.789,407.42,193.547,401.997,185.185z"/>
<path style="fill:#39A3DB;" d="M437.129,237.37c-25.495,0-48.998-12.788-62.872-34.208c-7.848-12.101-11.999-26.165-11.999-40.663
	c0-41.284,33.587-74.871,74.871-74.871S512,121.216,512,162.5c0,33.051-21.199,61.803-52.75,71.545
	C452.111,236.252,444.668,237.37,437.129,237.37z"/>
<path style="fill:#FFC72D;" d="M437.833,133.665l-9.695,5.598c-7.226,4.174-4.345,15.421,4.136,15.421
	c0.479,0,0.957-0.042,1.427-0.125v29.628c0,4.557,3.707,8.264,8.264,8.264c4.557,0,8.264-3.707,8.264-8.264v-43.367
	C450.23,134.485,443.343,130.483,437.833,133.665z"/>
<g>
</g>
<g>
</g>
<g>
</g>
<g>
</g>
<g>
</g>
<g>
</g>
<g>
</g>
<g>
</g>
<g>
</g>
<g>
</g>
<g>
</g>
<g>
</g>
<g>
</g>
<g>
</g>
<g>
</g>
</svg>
