<?xml version="1.0" encoding="UTF-8"?>
<svg xmlns="http://www.w3.org/2000/svg" xmlns:xlink="http://www.w3.org/1999/xlink" viewBox="0 0 512 512" width="512px" height="512px">
<g id="surface17662540">
<path style=" stroke:none;fill-rule:nonzero;fill:rgb(15.294118%,76.862746%,6.666667%);fill-opacity:1;" d="M 256 20.480469 C 126.050781 20.480469 20.480469 126.050781 20.480469 256 C 20.480469 385.949219 126.050781 491.519531 256 491.519531 C 385.949219 491.519531 491.519531 385.949219 491.519531 256 C 491.519531 126.050781 385.949219 20.480469 256 20.480469 Z M 256 40.960938 C 374.882812 40.960938 471.039062 137.117188 471.039062 256 C 471.039062 374.882812 374.882812 471.039062 256 471.039062 C 137.117188 471.039062 40.960938 374.882812 40.960938 256 C 40.960938 137.117188 137.117188 40.960938 256 40.960938 Z M 358.28125 153.480469 C 354.902344 153.546875 351.773438 155.273438 349.921875 158.101562 L 245.460938 312.078125 L 170.800781 242.800781 C 168.128906 240.230469 164.28125 239.304688 160.734375 240.375 C 157.191406 241.449219 154.5 244.351562 153.699219 247.96875 C 152.898438 251.585938 154.117188 255.351562 156.878906 257.820312 L 249 343.300781 L 366.878906 169.578125 C 369.085938 166.421875 369.328125 162.292969 367.515625 158.894531 C 365.699219 155.496094 362.132812 153.402344 358.28125 153.480469 Z M 358.28125 153.480469 "/>
</g>
</svg>
